<svg width="25" height="25" viewBox="0 0 25 25" fill="none" xmlns="http://www.w3.org/2000/svg">
<path d="M12.5 0C5.59687 0 0 5.59687 0 12.5C0 19.4031 5.59687 25 12.5 25C19.4031 25 25 19.4031 25 12.5C25 5.59687 19.4031 0 12.5 0ZM12.5 22.9167C9.24687 22.9167 6.33958 21.4156 4.42812 19.0729C4.69792 18.4604 5.24375 18.0365 6.37292 17.775C8.71042 17.2354 11.0177 16.7531 9.90729 14.7073C6.62083 8.64479 8.97083 5.20833 12.5 5.20833C15.9604 5.20833 18.3687 8.51771 15.0927 14.7073C14.0146 16.7406 16.2385 17.224 18.6271 17.775C19.7542 18.0354 20.3042 18.4573 20.576 19.0677C18.6635 21.4146 15.7552 22.9167 12.5 22.9167Z" fill="white"/>
</svg>
