<svg width="6" height="8" viewBox="0 0 6 8" fill="none" xmlns="http://www.w3.org/2000/svg">
<path fill-rule="evenodd" clip-rule="evenodd" d="M2.66667 3.33333C2.29867 3.33333 2 3.03467 2 2.66667C2 2.29867 2.29867 2 2.66667 2C3.03467 2 3.33333 2.29867 3.33333 2.66667C3.33333 3.03467 3.03467 3.33333 2.66667 3.33333ZM2.66667 1.66667C2.11433 1.66667 1.66667 2.11433 1.66667 2.66667C1.66667 3.219 2.11433 3.66667 2.66667 3.66667C3.219 3.66667 3.66667 3.219 3.66667 2.66667C3.66667 2.11433 3.219 1.66667 2.66667 1.66667ZM0.333333 2.534C0.333333 1.36167 1.42367 0.333333 2.66667 0.333333C3.90967 0.333333 5 1.36167 5 2.534C5 3.68567 4.14567 5.04833 2.66667 7.37633C1.17033 5.01867 0.333333 3.68567 0.333333 2.534ZM2.66667 0C1.26733 0 0 1.13433 0 2.534C0 3.93333 1.15633 5.604 2.66667 8C4.177 5.604 5.33333 3.93333 5.33333 2.534C5.33333 1.13433 4.06633 0 2.66667 0Z" fill="#A0A0A0"/>
</svg>
