<svg width="33" height="33" viewBox="0 0 33 33" fill="none" xmlns="http://www.w3.org/2000/svg">
<path d="M16.5 0C7.38788 0 0 7.38788 0 16.5C0 25.6121 7.38788 33 16.5 33C25.6121 33 33 25.6121 33 16.5C33 7.38788 25.6121 0 16.5 0ZM27.1604 25.1694C26.8015 24.3636 26.0755 23.8067 24.5877 23.463C21.4349 22.7356 18.4993 22.0976 19.9224 19.4136C24.2467 11.2434 21.0678 6.875 16.5 6.875C11.8415 6.875 8.7395 11.4111 13.0776 19.4136C14.5434 22.1141 11.4991 22.7507 8.41225 23.463C6.92175 23.8067 6.20125 24.3678 5.84512 25.1762C3.91325 22.8071 2.75 19.7876 2.75 16.5C2.75 8.91825 8.91825 2.75 16.5 2.75C24.0817 2.75 30.25 8.91825 30.25 16.5C30.25 19.7849 29.0881 22.8016 27.1604 25.1694Z" fill="#D0D0D0"/>
</svg>
